# xmcd
#
# Track frame offsets:
#	150
#	12341
#	23256
#	40936
#	51850
#	65904
#	80811
#	95429
#	111146
#	127073
#	142305
#	156029
#	170363
#	184104
#	200514
#	214697
#	230609
#
# Disc length: 3266 seconds
#
# Revision: 0
# Processed by: cddbd v1.5.2PL0 Copyright (c) Steve Scherf et al.
# Submitted via: EasyCDDAExtractor 16.0.6.1
#
DISCID=f30cc011
DTITLE=Συλλογικός δίσκος - Ελληνικό Πάσχα 3
DYEAR=2012
DGENRE=Παραδοσιακή
TTITLE0=Σαμίου Δόμνα - Έχε γειά Παναγιά [χασάπικο πολίτικο, παραδ.]
TTITLE1=Αηδονίδης Χρόνης - Αρχοντογιός παντρεύεται [Χρ. Αηδονίδης]
TTITLE2=Σαμίου Δόμνα - Αμάν γκελ αμάν [καρσιλαμάς Μ. Ασίας]
TTITLE3=Αηδονίδης Χρόνης - Στην Ελλάδα το διαμάντι [καρσιλαμάς Ανατ. Θράκης]
TTITLE4=Αηδονίδης Χρόνης - Πέντε-δέκα παπαδιές [Χρ. Αηδονίδης]
TTITLE5=Κακαλής Απόστολος - Κάτου στα ρόδα [μπαϊτούσκα Θράκης, Δ. Σαμίου]
TTITLE6=Αηδονίδης Χρόνης - Τώρα που στήσαν το χορό [καλαμ. συρτός Μακεδονίας, 
TTITLE6=παραδ.]
TTITLE7=Χαλκιάς Φώτης-Λίττου Πολυξένη - Στης πικροδάφνης τον ανθό [παραδ. διασ
TTITLE7=κ. Τ. κ Φ. Χαλκιάς]
TTITLE8=Χαλκιάς Φώτης - Ο Σαμαντάκας [παραδ. διασκ. Τ. Χαλκιάς]
TTITLE9=Μπέλλος Στέλιος - Ο Μενούσης [παραδ. διασκ. Τ. Χαλκιάς]
TTITLE10=Μπέλλος Στέλιος - Κοντούλα λεμονιά [παραδ., διασκ. Τ. Χαλκιάς-Στ. Μπέ
TTITLE10=λλος]
TTITLE11=Μπέλλος Στέλιος - Ο Ρόβας [παραδ., διασκ. Τ. Χαλκιάς-Σ. Μπέλλος]
TTITLE12=Χαλκιάς Φώτης-Αθανασίου Παγώνα - Δε στό 'πα χαλασιά μου [Τάσος Χαλκιά
TTITLE12=ς-Φώτης Χαλκιάς]
TTITLE13=Χαλκιάς Φώτης - Βασιλαρχόντισσα [Τάσος Χαλκιάς-Φώτης Χαλκιάς]
TTITLE14=Αθανασίου Παγώνα - Τα μάγια στο πηγάδι [παραδ. διασκ. Τ. Χαλκιάς-Φ. Χ
TTITLE14=αλκιάς]
TTITLE15=Χαλκιάς Λάκης - Ο σεβντάς [Λάκης Χαλκιάς]
TTITLE16=Μπέλλος Στέλιος - Χαριτωμένη συντροφιά [επιτραπέζιο, Στέλιος Μπέλλος]
EXTD=
EXTT0=
EXTT1=
EXTT2=
EXTT3=
EXTT4=
EXTT5=
EXTT6=
EXTT7=
EXTT8=
EXTT9=
EXTT10=
EXTT11=
EXTT12=
EXTT13=
EXTT14=
EXTT15=
EXTT16=
PLAYORDER=
